<svg viewBox="0 0 1200 680" xmlns="http://www.w3.org/2000/svg" width="1200" height="680">
  <defs>
    <linearGradient id="bg" x1="0%" y1="0%" x2="100%" y2="100%">
      <stop offset="0%" style="stop-color:#0D1B35"/>
      <stop offset="100%" style="stop-color:#1A1A40"/>
    </linearGradient>
    <linearGradient id="heatBar" x1="0%" y1="0%" x2="100%" y2="0%">
      <stop offset="0%" style="stop-color:#FF6B35"/>
      <stop offset="100%" style="stop-color:#F7B731"/>
    </linearGradient>
    <linearGradient id="lineGrad" x1="0%" y1="0%" x2="0%" y2="100%">
      <stop offset="0%" style="stop-color:#FF6B35;stop-opacity:0.3"/>
      <stop offset="100%" style="stop-color:#FF6B35;stop-opacity:0"/>
    </linearGradient>
    <linearGradient id="lineGrad2" x1="0%" y1="0%" x2="0%" y2="100%">
      <stop offset="0%" style="stop-color:#F7B731;stop-opacity:0.3"/>
      <stop offset="100%" style="stop-color:#F7B731;stop-opacity:0"/>
    </linearGradient>
    <clipPath id="chartClip">
      <rect x="0" y="0" width="520" height="200"/>
    </clipPath>
  </defs>

  <!-- Page background -->
  <rect width="1200" height="680" rx="12" fill="url(#bg)"/>
  
  <!-- Browser chrome -->
  <rect width="1200" height="36" rx="0" fill="#0A1525"/>
  <circle cx="20" cy="18" r="6" fill="#FF5F57"/>
  <circle cx="40" cy="18" r="6" fill="#FEBC2E"/>
  <circle cx="60" cy="18" r="6" fill="#28C840"/>
  <text x="600" y="23" font-family="'Segoe UI', sans-serif" font-size="12" fill="#8DA6C8" text-anchor="middle">India Weather Analytics Dashboard — Power BI</text>

  <!-- Header bar -->
  <rect x="0" y="36" width="1200" height="56" fill="#0E2040"/>
  <text x="24" y="72" font-family="'Segoe UI', sans-serif" font-size="22" font-weight="700" fill="#FFFFFF">🌡️ HOW MUCH HOTTER / COLDER HAS INDIA GOTTEN?</text>
  <text x="1000" y="68" font-family="'Segoe UI', sans-serif" font-size="12" fill="#8DA6C8">Jan 2020 – Dec 2025</text>

  <!-- ===== TOP ROW: KPI Cards ===== -->
  <!-- Card 1: Hottest City -->
  <rect x="16" y="104" width="174" height="88" rx="8" fill="#0A1628" stroke="#FF6B35" stroke-width="1.5" stroke-opacity="0.6"/>
  <text x="103" y="126" font-family="'Segoe UI', sans-serif" font-size="10" fill="#FF8C50" text-anchor="middle" letter-spacing="1">🔥 HOTTEST CITY</text>
  <text x="103" y="158" font-family="'Segoe UI', sans-serif" font-size="15" font-weight="700" fill="#FFFFFF" text-anchor="middle">Tiruchirappalli</text>
  <text x="103" y="178" font-family="'Segoe UI', sans-serif" font-size="11" fill="#F7B731" text-anchor="middle">34.8°C avg max</text>

  <!-- Card 2: Max Temp -->
  <rect x="200" y="104" width="145" height="88" rx="8" fill="#0A1628" stroke="#FF4757" stroke-width="1.5" stroke-opacity="0.6"/>
  <text x="272" y="126" font-family="'Segoe UI', sans-serif" font-size="10" fill="#FF6B81" text-anchor="middle" letter-spacing="1">MAX TEMP</text>
  <text x="272" y="162" font-family="'Segoe UI', sans-serif" font-size="28" font-weight="800" fill="#FF4757" text-anchor="middle">36.9°C</text>
  <text x="272" y="180" font-family="'Segoe UI', sans-serif" font-size="10" fill="#8DA6C8" text-anchor="middle">National peak (May)</text>

  <!-- Card 3: Min Temp -->
  <rect x="355" y="104" width="145" height="88" rx="8" fill="#0A1628" stroke="#74B9FF" stroke-width="1.5" stroke-opacity="0.6"/>
  <text x="427" y="126" font-family="'Segoe UI', sans-serif" font-size="10" fill="#74B9FF" text-anchor="middle" letter-spacing="1">MIN TEMP</text>
  <text x="427" y="162" font-family="'Segoe UI', sans-serif" font-size="28" font-weight="800" fill="#74B9FF" text-anchor="middle">8.3°C</text>
  <text x="427" y="180" font-family="'Segoe UI', sans-serif" font-size="10" fill="#8DA6C8" text-anchor="middle">Srinagar (Jan avg)</text>

  <!-- Card 4: Warmest Month -->
  <rect x="510" y="104" width="145" height="88" rx="8" fill="#0A1628" stroke="#F7B731" stroke-width="1.5" stroke-opacity="0.6"/>
  <text x="582" y="126" font-family="'Segoe UI', sans-serif" font-size="10" fill="#F7B731" text-anchor="middle" letter-spacing="1">WARMEST MONTH</text>
  <text x="582" y="162" font-family="'Segoe UI', sans-serif" font-size="28" font-weight="800" fill="#F7B731" text-anchor="middle">May</text>
  <text x="582" y="180" font-family="'Segoe UI', sans-serif" font-size="10" fill="#8DA6C8" text-anchor="middle">Pre-monsoon peak</text>

  <!-- Card 5: Coldest Month -->
  <rect x="665" y="104" width="145" height="88" rx="8" fill="#0A1628" stroke="#A29BFE" stroke-width="1.5" stroke-opacity="0.6"/>
  <text x="737" y="126" font-family="'Segoe UI', sans-serif" font-size="10" fill="#A29BFE" text-anchor="middle" letter-spacing="1">COLDEST MONTH</text>
  <text x="737" y="162" font-family="'Segoe UI', sans-serif" font-size="28" font-weight="800" fill="#A29BFE" text-anchor="middle">January</text>
  <text x="737" y="180" font-family="'Segoe UI', sans-serif" font-size="10" fill="#8DA6C8" text-anchor="middle">25.2°C avg max</text>

  <!-- Card 6: Records -->
  <rect x="820" y="104" width="145" height="88" rx="8" fill="#0A1628" stroke="#55EFC4" stroke-width="1.5" stroke-opacity="0.6"/>
  <text x="892" y="126" font-family="'Segoe UI', sans-serif" font-size="10" fill="#55EFC4" text-anchor="middle" letter-spacing="1">RECORDS</text>
  <text x="892" y="162" font-family="'Segoe UI', sans-serif" font-size="28" font-weight="800" fill="#55EFC4" text-anchor="middle">7,056</text>
  <text x="892" y="180" font-family="'Segoe UI', sans-serif" font-size="10" fill="#8DA6C8" text-anchor="middle">96 cities · 72 months</text>

  <!-- Slicers panel (right) -->
  <rect x="975" y="104" width="210" height="88" rx="8" fill="#0A1628" stroke="#2D3E57" stroke-width="1"/>
  <text x="1080" y="125" font-family="'Segoe UI', sans-serif" font-size="10" fill="#8DA6C8" text-anchor="middle" letter-spacing="1">FILTERS</text>
  <rect x="990" y="132" width="175" height="18" rx="4" fill="#0E2040"/>
  <text x="1000" y="145" font-family="'Segoe UI', sans-serif" font-size="10" fill="#8DA6C8">📅 Date: All</text>
  <rect x="990" y="155" width="175" height="18" rx="4" fill="#0E2040"/>
  <text x="1000" y="168" font-family="'Segoe UI', sans-serif" font-size="10" fill="#8DA6C8">🏙️ City: All 96</text>
  <rect x="990" y="178" width="175" height="10" rx="4" fill="#0E2040"/>
  <text x="1000" y="186" font-family="'Segoe UI', sans-serif" font-size="10" fill="#8DA6C8">📆 Year: 2020–2025</text>

  <!-- ===== MAIN ROW ===== -->
  <!-- Line Chart -->
  <rect x="16" y="208" width="600" height="240" rx="8" fill="#0A1628" stroke="#1E3A5F" stroke-width="1"/>
  <text x="30" y="232" font-family="'Segoe UI', sans-serif" font-size="13" font-weight="600" fill="#FFFFFF">Monthly Max Temperature Trend by Year</text>
  
  <!-- Y-axis labels -->
  <g font-family="'Segoe UI', sans-serif" font-size="10" fill="#4A6080" text-anchor="end">
    <text x="56" y="262">40°</text>
    <text x="56" y="292">35°</text>
    <text x="56" y="322">30°</text>
    <text x="56" y="352">25°</text>
    <text x="56" y="382">20°</text>
    <text x="56" y="412">15°</text>
  </g>
  <!-- Grid lines -->
  <g stroke="#1E3A5F" stroke-width="0.5" stroke-dasharray="4,4">
    <line x1="62" y1="258" x2="600" y2="258"/>
    <line x1="62" y1="288" x2="600" y2="288"/>
    <line x1="62" y1="318" x2="600" y2="318"/>
    <line x1="62" y1="348" x2="600" y2="348"/>
    <line x1="62" y1="378" x2="600" y2="378"/>
    <line x1="62" y1="408" x2="600" y2="408"/>
  </g>
  <!-- Month labels -->
  <g font-family="'Segoe UI', sans-serif" font-size="9" fill="#4A6080" text-anchor="middle">
    <text x="95" y="425">Jan</text><text x="135" y="425">Feb</text><text x="175" y="425">Mar</text>
    <text x="215" y="425">Apr</text><text x="255" y="425">May</text><text x="295" y="425">Jun</text>
    <text x="335" y="425">Jul</text><text x="375" y="425">Aug</text><text x="415" y="425">Sep</text>
    <text x="455" y="425">Oct</text><text x="495" y="425">Nov</text><text x="540" y="425">Dec</text>
  </g>
  <!-- Line 2024 (hottest) -->
  <polyline points="95,360 135,334 175,298 215,278 255,260 295,280 335,295 375,300 415,302 455,302 495,318 540,355" fill="none" stroke="#FF6B35" stroke-width="2.5"/>
  <!-- Line 2023 -->
  <polyline points="95,365 135,338 175,302 215,282 255,265 295,285 335,298 375,302 415,305 455,305 495,322 540,360" fill="none" stroke="#F7B731" stroke-width="2"/>
  <!-- Line 2020 -->
  <polyline points="95,368 135,340 175,305 215,283 255,267 295,287 335,300 375,303 415,305 455,307 495,325 540,362" fill="none" stroke="#74B9FF" stroke-width="2"/>
  <!-- Legend -->
  <g transform="translate(350, 440)">
    <circle cx="0" cy="0" r="4" fill="#FF6B35"/>
    <text x="8" y="4" font-family="'Segoe UI', sans-serif" font-size="10" fill="#8DA6C8">2024</text>
    <circle cx="55" cy="0" r="4" fill="#F7B731"/>
    <text x="63" y="4" font-family="'Segoe UI', sans-serif" font-size="10" fill="#8DA6C8">2023</text>
    <circle cx="110" cy="0" r="4" fill="#74B9FF"/>
    <text x="118" y="4" font-family="'Segoe UI', sans-serif" font-size="10" fill="#8DA6C8">2020</text>
  </g>

  <!-- Bar Chart: Top 5 Cities -->
  <rect x="626" y="208" width="350" height="240" rx="8" fill="#0A1628" stroke="#1E3A5F" stroke-width="1"/>
  <text x="640" y="232" font-family="'Segoe UI', sans-serif" font-size="13" font-weight="600" fill="#FFFFFF">Top 5 Hottest Cities (°C)</text>
  
  <!-- Bars -->
  <g transform="translate(640, 248)">
    <!-- Tiruchirappalli -->
    <rect x="0" y="0" width="290" height="28" rx="4" fill="url(#heatBar)" opacity="0.9"/>
    <text x="295" y="19" font-family="'Segoe UI', sans-serif" font-size="12" font-weight="700" fill="#F7B731">34.8</text>
    <text x="-2" y="19" font-family="'Segoe UI', sans-serif" font-size="10" fill="#FFFFFF">Tiruchirappalli</text>
    <!-- Ahmedabad -->
    <rect x="0" y="36" width="280" height="28" rx="4" fill="#FF6B35" fill-opacity="0.8"/>
    <text x="285" y="55" font-family="'Segoe UI', sans-serif" font-size="12" font-weight="700" fill="#F7B731">34.4</text>
    <text x="-2" y="55" font-family="'Segoe UI', sans-serif" font-size="10" fill="#FFFFFF">Ahmedabad</text>
    <!-- Madurai -->
    <rect x="0" y="72" width="278" height="28" rx="4" fill="#FF6B35" fill-opacity="0.6"/>
    <text x="283" y="91" font-family="'Segoe UI', sans-serif" font-size="12" font-weight="700" fill="#F7B731">34.4</text>
    <text x="-2" y="91" font-family="'Segoe UI', sans-serif" font-size="10" fill="#FFFFFF">Madurai</text>
    <!-- Bikaner -->
    <rect x="0" y="108" width="270" height="28" rx="4" fill="#FF6B35" fill-opacity="0.45"/>
    <text x="275" y="127" font-family="'Segoe UI', sans-serif" font-size="12" font-weight="700" fill="#F7B731">34.2</text>
    <text x="-2" y="127" font-family="'Segoe UI', sans-serif" font-size="10" fill="#FFFFFF">Bikaner</text>
    <!-- Tirunelveli -->
    <rect x="0" y="144" width="268" height="28" rx="4" fill="#FF6B35" fill-opacity="0.3"/>
    <text x="273" y="163" font-family="'Segoe UI', sans-serif" font-size="12" font-weight="700" fill="#F7B731">34.2</text>
    <text x="-2" y="163" font-family="'Segoe UI', sans-serif" font-size="10" fill="#FFFFFF">Tirunelveli</text>
  </g>

  <!-- Map visual (simplified) -->
  <rect x="986" y="208" width="200" height="240" rx="8" fill="#0A1628" stroke="#1E3A5F" stroke-width="1"/>
  <text x="1000" y="232" font-family="'Segoe UI', sans-serif" font-size="13" font-weight="600" fill="#FFFFFF">Temperature Map</text>
  <!-- India outline (simplified polygon) -->
  <polygon points="1060,260 1090,252 1120,265 1150,280 1160,310 1155,350 1140,385 1110,415 1090,425 1070,415 1045,390 1035,355 1040,315 1048,285" fill="#1E3A5F" stroke="#2D5F8A" stroke-width="1.5"/>
  <!-- City bubbles -->
  <circle cx="1095" cy="285" r="12" fill="#FF4757" opacity="0.7"/> <!-- Delhi -->
  <circle cx="1065" cy="370" r="10" fill="#FF6B35" opacity="0.7"/> <!-- Mumbai -->
  <circle cx="1100" cy="380" r="14" fill="#FF6B35" opacity="0.9"/> <!-- Chennai/Trichy -->
  <circle cx="1095" cy="355" r="9" fill="#F7B731" opacity="0.7"/> <!-- Hyderabad -->
  <circle cx="1055" cy="285" r="8" fill="#FF8C50" opacity="0.7"/> <!-- Jodhpur -->
  <circle cx="1110" cy="400" r="11" fill="#FF4757" opacity="0.8"/> <!-- Madurai -->
  <text x="1086" y="445" font-family="'Segoe UI', sans-serif" font-size="9" fill="#8DA6C8" text-anchor="middle">Bubble = Avg Max Temp</text>

  <!-- ===== BOTTOM ROW ===== -->
  <!-- City Performance Table -->
  <rect x="16" y="462" width="960" height="200" rx="8" fill="#0A1628" stroke="#1E3A5F" stroke-width="1"/>
  <text x="30" y="486" font-family="'Segoe UI', sans-serif" font-size="13" font-weight="600" fill="#FFFFFF">City Performance Summary</text>
  <!-- Table header -->
  <rect x="16" y="494" width="960" height="24" fill="#0E2040"/>
  <g font-family="'Segoe UI', sans-serif" font-size="11" fill="#8DA6C8">
    <text x="40" y="511">City</text>
    <text x="280" y="511">Avg Max (°C)</text>
    <text x="440" y="511">Avg Min (°C)</text>
    <text x="600" y="511">Avg Temp (°C)</text>
    <text x="760" y="511">Peak Month</text>
    <text x="900" y="511">Coldest Month</text>
  </g>
  <!-- Table rows -->
  <g font-family="'Segoe UI', sans-serif" font-size="11">
    <rect x="16" y="518" width="960" height="22" fill="#0C1D36" fill-opacity="0.5"/>
    <text x="40" y="533" fill="#FFFFFF">Tiruchirappalli</text>
    <text x="310" y="533" fill="#FF6B35" text-anchor="middle">34.80</text>
    <text x="468" y="533" fill="#74B9FF" text-anchor="middle">24.90</text>
    <text x="635" y="533" fill="#F7B731" text-anchor="middle">29.23</text>
    <text x="790" y="533" fill="#8DA6C8" text-anchor="middle">May</text>
    <text x="945" y="533" fill="#8DA6C8" text-anchor="middle">January</text>

    <text x="40" y="555" fill="#FFFFFF">Ahmedabad</text>
    <text x="310" y="555" fill="#FF8C50" text-anchor="middle">34.43</text>
    <text x="468" y="555" fill="#74B9FF" text-anchor="middle">18.40</text>
    <text x="635" y="555" fill="#F7B731" text-anchor="middle">26.75</text>
    <text x="790" y="555" fill="#8DA6C8" text-anchor="middle">May</text>
    <text x="945" y="555" fill="#8DA6C8" text-anchor="middle">January</text>

    <rect x="16" y="560" width="960" height="22" fill="#0C1D36" fill-opacity="0.5"/>
    <text x="40" y="575" fill="#FFFFFF">Madurai</text>
    <text x="310" y="575" fill="#FF8C50" text-anchor="middle">34.40</text>
    <text x="468" y="575" fill="#74B9FF" text-anchor="middle">23.10</text>
    <text x="635" y="575" fill="#F7B731" text-anchor="middle">28.52</text>
    <text x="790" y="575" fill="#8DA6C8" text-anchor="middle">April</text>
    <text x="945" y="575" fill="#8DA6C8" text-anchor="middle">December</text>

    <text x="40" y="597" fill="#FFFFFF">Srinagar</text>
    <text x="310" y="597" fill="#74B9FF" text-anchor="middle">20.96</text>
    <text x="468" y="597" fill="#74B9FF" text-anchor="middle">8.25</text>
    <text x="635" y="597" fill="#74B9FF" text-anchor="middle">14.55</text>
    <text x="790" y="597" fill="#8DA6C8" text-anchor="middle">July</text>
    <text x="945" y="597" fill="#8DA6C8" text-anchor="middle">January</text>

    <rect x="16" y="601" width="960" height="22" fill="#0C1D36" fill-opacity="0.5"/>
    <text x="40" y="616" fill="#FFFFFF">Shimla</text>
    <text x="310" y="616" fill="#74B9FF" text-anchor="middle">22.00</text>
    <text x="468" y="616" fill="#74B9FF" text-anchor="middle">11.20</text>
    <text x="635" y="616" fill="#74B9FF" text-anchor="middle">16.06</text>
    <text x="790" y="616" fill="#8DA6C8" text-anchor="middle">July</text>
    <text x="945" y="616" fill="#8DA6C8" text-anchor="middle">January</text>

    <text x="40" y="638" fill="#4A6080">... and 91 more cities</text>
  </g>

  <!-- Footer label -->
  <rect x="986" y="462" width="200" height="200" rx="8" fill="#0A1628" stroke="#1E3A5F" stroke-width="1"/>
  <text x="1086" y="490" font-family="'Segoe UI', sans-serif" font-size="11" fill="#8DA6C8" text-anchor="middle">QUICK STATS</text>
  <g font-family="'Segoe UI', sans-serif" font-size="11" fill="#FFFFFF">
    <text x="1000" y="518">🏙️ Cities</text><text x="1165" y="518" text-anchor="end" fill="#55EFC4">96</text>
    <line x1="1000" y1="525" x2="1175" y2="525" stroke="#1E3A5F" stroke-width="0.5"/>
    <text x="1000" y="544">📊 Records</text><text x="1165" y="544" text-anchor="end" fill="#55EFC4">7,056</text>
    <line x1="1000" y1="551" x2="1175" y2="551" stroke="#1E3A5F" stroke-width="0.5"/>
    <text x="1000" y="570">📅 Years</text><text x="1165" y="570" text-anchor="end" fill="#55EFC4">6</text>
    <line x1="1000" y1="577" x2="1175" y2="577" stroke="#1E3A5F" stroke-width="0.5"/>
    <text x="1000" y="596">🌡️ Max Ever</text><text x="1165" y="596" text-anchor="end" fill="#FF6B35">36.9°C</text>
    <line x1="1000" y1="603" x2="1175" y2="603" stroke="#1E3A5F" stroke-width="0.5"/>
    <text x="1000" y="622">❄️ Min Ever</text><text x="1165" y="622" text-anchor="end" fill="#74B9FF">8.3°C</text>
    <line x1="1000" y1="629" x2="1175" y2="629" stroke="#1E3A5F" stroke-width="0.5"/>
    <text x="1000" y="648">☀️ Sunniest</text><text x="1165" y="648" text-anchor="end" fill="#F7B731">Jhansi</text>
    <line x1="1000" y1="655" x2="1175" y2="655" stroke="#1E3A5F" stroke-width="0.5"/>
  </g>
</svg>
